<?xml version="1.0" encoding="UTF-8"?>
<svg id="Capa_2" data-name="Capa 2" xmlns="http://www.w3.org/2000/svg" viewBox="0 0 102.13 53.79">
  <defs>
    <style>
      .cls-1 {
        fill: #fff;
      }
    </style>
  </defs>
  <g id="logos_png" data-name="logos png">
    <path class="cls-1" d="M0,0v53.79h102.13V0H0ZM32.53,34.59c-4.38-9.13-1.22-20.45,8.09-24.87-6.08,6.23-9.27,15.74-7.99,24.39.02.16.18.51-.1.48ZM34.07,36.12C31.35,24.3,42.73.47,57.4,8.51c-13.92,2.84-23.46,22.62-17.61,35.21-2.92-1.85-5.02-4.13-5.73-7.6ZM40.24,32.49c1.3-6.54,5.95-13.5,11.01-17.76,4.51-3.79,11.05-7.43,15.29-1.12-9.48,0-26.31,26.02-17.68,33.26-8.12.15-9.93-7.77-8.62-14.38ZM55.46,24.66c1.89-2.35,9.95-13.16,12.94-8.57,1.21,1.49,1.75,3.43,2.18,5.31-9.25-4.36-21.37,16.94-17.21,24.03l1.17,1.45c-12.61.82-2.83-17.35.91-22.21ZM58.75,45.6c-1.56.64-3,.98-4.29-.42-1.68-1.83-.99-4.54-.39-6.65,1.57-5.54,5.43-12.12,10.39-15.23,3.27-2.05,6.67-2.92,7.04,2.08.61,8.34-5.09,17.09-12.75,20.23Z"/>
  </g>
</svg>