<?xml version="1.0" encoding="UTF-8"?>
<svg id="Capa_2" data-name="Capa 2" xmlns="http://www.w3.org/2000/svg" viewBox="0 0 102.13 53.79">
  <g id="logos_png" data-name="logos png">
    <g>
      <path d="M79.62,43.53c.08-.15.11-.29.09-.46-2.42-.26-.67,1.57-.09.46Z"/>
      <path d="M58.14,37.7c.82-.14.82-2.15-.33-1.94-.92.17-.89,2.14.33,1.94Z"/>
      <path d="M76.72,36.48h1.28c-.06-.97-1.43-.91-1.28,0Z"/>
      <path d="M64.68,36.3c-.05.28.12.17.3.18.34.02.7-.02,1.04,0-.05-.9-.99-.97-1.34-.18Z"/>
      <path d="M83.86,36.29c-.03.25.01.16.18.18.36.05.79-.04,1.16,0-.1-.83-1.06-1.03-1.35-.18Z"/>
      <path d="M54.63,37.67c1.1.33,1.3-1.3.73-1.77-1.09-.89-1.74,1.47-.73,1.77Z"/>
      <path d="M74.06,35.76c-1.16.21-.58,2.62.78,1.52.32-.62.08-1.67-.78-1.52Z"/>
      <path d="M53.58,43.61c.2.62,1.44.2,1.21-.53-.44.01-1.44-.19-1.21.53Z"/>
      <path d="M62.52,35.76c-.1-.04-.2-.02-.31,0-.9.17-.94,1.89-.03,1.95,1.12.07,1.16-1.49.34-1.95Z"/>
      <path d="M56.5,42.71h1.22c.07-1.13-1.28-1.08-1.22,0Z"/>
      <path d="M88.02,41.24l-.37,1.59h.98c.06-.06-.34-1.51-.61-1.59Z"/>
      <path d="M89.99,37.68c.62.11,1.17.02,1.08-.71-.65,0-1.54-.21-1.08.71Z"/>
      <path d="M0,0v53.79h102.13V0H0ZM90.95,12.41h3.91v18.57h-3.73s-.09.15-.18.12V12.41ZM89.36,34.16c.18.16-.98.98-1.1.85.08-.57.51-.97,1.1-.85ZM88.26,35.38h.49v2.81h-.49v-2.81ZM74.21,12.41h12.59v3.36s.15.09.12.18h-8.8v4.15h7.94v3.3h-7.94v4.28h9.04v3.42h-12.95V12.41ZM84.19,37.67c.86.27.92-.4,1.07-.43.59-.09.5.39.11.68-.61.46-1.59.35-1.92-.36-1.13-2.46,2.47-3.31,2.24-.6h-1.95c.12.25.16.62.45.71ZM72.26,35.8v2.38h-.49v-2.14c0-.48-1.22-.3-1.22.12v2.02h-.49v-2.81h.48s.07.37.07.37c.26-.62,1.65-.53,1.65.06ZM56.34,13.65c4.89-3.41,13.48-1.67,14.21,4.99-.04.06-.16-.12-.18-.12h-3.85c-.91-3.3-5.57-3.74-8-1.83-3,2.36-2.91,8.64.46,10.65,2.81,1.67,7.44.77,7.78-2.96h-4.64v-3.3h8.68v10.02h-3.3v-1.95c-2.36,2.62-6.61,2.88-9.74,1.61-6.98-2.84-7.39-12.95-1.42-17.11ZM69.2,34.4v3.79h-.61v-3.79h.61ZM65.7,37.67c.05-.02,1.09-.79.8-.06-.32.81-1.82.78-2.21-.07-1.08-2.35,2.47-3.31,2.35-.58h-1.95c-.03.56.5.87,1.01.71ZM57.66,38.18c-1.42-.22-1.43-2.76.14-2.9,1.91-.17,2.06,3.25-.14,2.9ZM45.01,12.41h4.03v18.69h-4.03V12.41ZM7.75,31.95c-3.57-7.44-.99-16.67,6.6-20.28-4.96,5.08-7.56,12.83-6.51,19.89.01.13.14.42-.09.39ZM9,33.21c-2.21-9.64,7.07-29.08,19.03-22.51-11.35,2.32-19.13,18.44-14.36,28.71-2.38-1.51-4.09-3.36-4.67-6.2ZM14.04,30.24c1.06-5.33,4.85-11.01,8.98-14.48,3.68-3.09,9.01-6.06,12.46-.92-7.73,0-21.45,21.22-14.42,27.13-6.62.12-8.1-6.34-7.03-11.73ZM26.44,23.86c1.54-1.92,8.11-10.73,10.55-6.99.98,1.22,1.43,2.8,1.78,4.33-7.54-3.56-17.43,13.81-14.03,19.59l.96,1.18c-10.28.66-2.31-14.15.74-18.11ZM29.12,40.93c-1.27.52-2.44.8-3.5-.35-1.37-1.49-.81-3.7-.32-5.43,1.28-4.52,4.43-9.88,8.47-12.42,2.67-1.67,5.44-2.38,5.74,1.7.5,6.8-4.15,13.94-10.39,16.5ZM44.85,35.52c.4-1.54,2.58-1.59,3.34-.33l-.6.3c-1.13-1.9-3.04.25-1.97,1.78.58.82,1.92.5,1.95-.55h-1.1s.06-.5.06-.5h1.65v1.96h-.61s0-.49,0-.49c-1.71,1.4-3.22-.27-2.73-2.18ZM45.62,44.3h-.49v-3.79h.49v3.79ZM48.68,44.3h-.49v-2.14c0-.42-1.22-.27-1.22.12v2.02l-.61-.18v-2.63h.6s0,.37,0,.37c.34-.58,1.71-.47,1.71.18v2.26ZM48.8,35.38h.41s.14.24.14.24c.22-.31.57-.26.92-.24.19.7-.98.32-.98.92v1.89h-.49v-2.81ZM50.88,41.97h-.73v2.32h-.49v-2.32h-.49v-.49h.49c-.13-1,.16-1.49,1.22-1.34v.49s-.68.12-.68.12l-.05.74h.73v.49ZM52.71,41.97c-.34-.14-.98.22-.98.55v1.77h-.49v-2.81h.48s.07.37.07.37c.15-.41.52-.38.92-.37v.49ZM52.95,38.19h-.61s.06-.37.06-.37c-.28-.05-.1.23-.41.31-.49.14-1.36-.07-1.36-.62v-2.14h.61v2.14c.17.37,1.1.15,1.1-.12v-2.02h.61v2.81ZM55.4,44.3h-.6s0-.37,0-.37c-.47.51-1.18.53-1.65,0-.36-1.41.59-1.25,1.65-1.22.18-.54-.37-1.07-.86-.8-.24.13-.18.69-.73.37-.19-.11-.05-.22.02-.35.49-.82,2.18-.44,2.18.22v2.14ZM54.18,37.82l-.06,1.35c-.17.25-.55.06-.55-.06v-3.73h.6s.07.37.07.37c.31-.34.55-.57,1.04-.43,1.74.46.75,4.1-1.1,2.51ZM57.51,43.78c.13-.04.8-.74.65.04-.13.66-1.87.76-2.19-.28-.75-2.43,2.55-2.97,2.36-.47h-1.95c.15.61.47.91,1.14.71ZM58.7,43.56l.53-.13c.21.48.59.46,1.06.32l.12-.36c-.14-.44-1.63-.03-1.59-1.1.03-.89,1.29-1.05,1.81-.64.33.27.41.7-.14.68-.24-.8-1.48-.33-1.17.13.14.21,1.54.07,1.65.96.13,1.12-2.03,1.23-2.26.14ZM62.85,41.97h-.61v1.83h.61s0,.49,0,.49c-1.64.23-.98-1.26-1.1-2.32h-.49s0-.49,0-.49h.49s0-.73,0-.73h.43s.06.73.06.73h.61s0,.49,0,.49ZM62.41,38.18c-1.98.21-1.79-2.9-.23-2.91.38,0,.58.32.92.35l-.12-1.59h.61v4.15h-.61s.12-.37.12-.37c-.38,0-.18.3-.68.36ZM63.95,42.4v1.89h-.49v-2.81h.41s.08.24.08.24c.18-.24.9-.39.97-.06.09.41-.98.23-.98.73ZM67.62,44.3c-.43.18-.52-.25-.55-.25-.26,0-.48.36-1.07.23-.2-.05-.58-.34-.58-.53v-2.26h.49v2.02c0,.54,1.22.33,1.22-.12v-1.89h.49v2.81ZM69.86,43.79c.24-.08.1-.59.81-.22-1,1.72-3.07.35-2.35-1.44.36-.89,2.08-.93,2.35.09l-.43.24c-1.52-2.05-2.25,1.99-.38,1.33ZM72.54,44.3c-1.51.15-1.11-1.23-1.13-2.26l-.38-.13.02-.42.36-.08v-.6c.55-.26.67.17.6.67h.61s0,.49,0,.49h-.61v1.83l.73.18-.2.31ZM75.44,44.3h-.48s-.01-.37-.01-.37c-.27.57-1.71.42-1.71-.06v-2.38h.49v2.02c0,.54,1.22.33,1.22-.12v-1.89h.49v2.81ZM75.41,38.59c-.23.79-2.4.89-2.42-.16.56-.32.61.25.94.35.67.2,1.19-.42,1.01-1.08-2.92,1.63-2.46-3.66-.16-2.15.06.04-.03.25.16.2l.07-.37h.54c-.36.92.1,2.38-.15,3.22ZM76.04,36.54c.11-1.28,1.8-1.7,2.34-.62.13.26.34.87.05,1.05h-1.77c-.08.61.47.88,1.01.71.05-.01.97-.73.82-.16-.31,1.12-2.62.92-2.45-.97ZM76.78,42.4v1.89h-.61v-2.81c.34,0,.57-.12.67.24.2-.27.48-.27.79-.24v.49c-.31-.09-.86.09-.86.43ZM80.2,44.3h-.48s-.01-.37-.01-.37c-2.11,1.36-2.53-1.82,0-1.22.17-.64-.52-1.12-1.03-.74-.14.1.06.65-.56.32-.24-.13.22-.67.37-.73.23-.11.89-.11,1.13-.04.11.03.57.49.57.52v2.26ZM81.42,38.19h-.49v-2.14c0-.48-1.22-.3-1.22.12v2.02h-.49v-2.81c.43-.18.52.25.55.25.35,0,.48-.65,1.27-.18.08.05.38.32.38.36v2.38ZM82.77,34.28v.6c-.87.35-.96-.86,0-.6ZM82.77,35.38v2.81h-.61v-2.81h.61ZM83.03,44.33c-.77-.2-1.4-1.14-.27-1.13.04.74.73.92,1.32.58.69-1.47-1.72-.77-1.81-2.11-.1-1.43,2.25-1.61,2.32-.19l-.48.13c-.02-.64-.62-.76-1.1-.43-.55.93.66.83,1.23,1.1,1.18.57.57,2.52-1.2,2.06ZM85.47,44.28c-.25-.18-.03-.84.41-.72.47.13.05,1.05-.41.72ZM86.43,35.38h.41s.14.24.14.24c.22-.31.57-.26.92-.24.03.68-.68.37-.98.92v1.89h-.49v-2.81ZM89.14,44.28l-.25-.77-1.4-.06-.34.82h-.59s1.24-3.76,1.24-3.76h.71s1.23,3.77,1.23,3.77l-.59-.02ZM90.72,44.24c-.53.37-.89-.52-.42-.67.53-.17.72.46.42.67ZM91.07,37.82c-2.06,1.33-2.53-1.85,0-1.34.08-.9-.84-1.02-1.18-.23l-.53-.13c.25-1.14,2.32-1,2.32.06v2.02h-.6s0-.37,0-.37ZM91.46,43.85c-.1-.17-.25-.44-.02-.6l.38.02c.16.89,1.47.93,1.59,0-.08-.84-2.51-.32-1.91-2.15.23-.68,1.47-.77,1.98-.32.39.35.33.62-.15.81-.18-.85-1.58-.76-1.39.04.14.56,1.79.33,2.01,1.42.28,1.38-1.9,1.81-2.5.78ZM94.63,44.28c-.25-.18-.03-.84.41-.72.47.13.05,1.05-.41.72ZM95.02,37.67c.05-.02,1.09-.79.8-.06-.36.92-2.18.81-2.31-.59-.22-2.45,2.56-2.24,2.45-.07h-1.95c-.03.56.5.87,1.01.71Z"/>
      <path d="M94.01,36.3c-.05.28.12.17.3.18.34.02.7-.02,1.04,0-.05-.9-.99-.97-1.34-.18Z"/>
    </g>
  </g>
</svg>