<?xml version="1.0" encoding="UTF-8"?>
<svg id="Capa_2" data-name="Capa 2" xmlns="http://www.w3.org/2000/svg" viewBox="0 0 40.95 40.01">
  <defs>
    <style>
      .cls-1 {
        fill: #17427e;
      }

      .cls-2 {
        fill: #306b49;
      }

      .cls-3 {
        fill: #c7922b;
      }
    </style>
  </defs>
  <g id="logos_png" data-name="logos png">
    <g>
      <path class="cls-1" d="M35.95,6.72c-9.48,0-26.31,26.02-17.68,33.26-8.12.15-9.93-7.77-8.62-14.38s5.95-13.5,11.01-17.76c4.51-3.79,11.05-7.43,15.29-1.12Z"/>
      <path class="cls-1" d="M23.87,38.29c-1.68-1.83-.99-4.54-.39-6.65,1.57-5.54,5.43-12.12,10.39-15.23,3.27-2.05,6.67-2.92,7.04,2.08.61,8.34-5.09,17.09-12.75,20.23-1.56.64-3,.98-4.29-.42Z"/>
      <path class="cls-1" d="M26.81,1.63C12.89,4.47,3.36,24.24,9.21,36.84c-2.92-1.85-5.02-4.13-5.73-7.6C.76,17.41,12.14-6.42,26.81,1.63Z"/>
      <path class="cls-3" d="M37.82,9.21c1.21,1.49,1.75,3.43,2.18,5.31-9.25-4.36-21.37,16.94-17.21,24.03l1.17,1.45c-12.61.82-2.83-17.35.91-22.21,1.89-2.35,9.95-13.16,12.94-8.57Z"/>
      <path class="cls-2" d="M10.03,2.83C3.95,9.06.76,18.56,2.05,27.22c.02.16.18.51-.1.48C-2.44,18.57.73,7.25,10.03,2.83Z"/>
    </g>
  </g>
</svg>