<svg version="1.1" id="Layer_1" xmlns="http://www.w3.org/2000/svg" xmlns:xlink="http://www.w3.org/1999/xlink" x="0px" y="0px"
	 width="100%" viewBox="0 0 1024 851" enable-background="new 0 0 1024 851" xml:space="preserve">
<path fill="#000000" opacity="1.000000" stroke="none" 
	d="
M700.000000,852.000000 
	C466.666656,852.000000 233.833328,852.000000 1.000000,852.000000 
	C1.000000,568.333313 1.000000,284.666656 1.000000,1.000000 
	C342.333344,1.000000 683.666687,1.000000 1025.000000,1.000000 
	C1025.000000,284.666656 1025.000000,568.333313 1025.000000,852.000000 
	C916.833313,852.000000 808.666687,852.000000 700.000000,852.000000 
M668.231262,218.058701 
	C644.944336,229.175812 624.685059,244.311432 608.268494,264.256134 
	C568.923096,312.057404 553.709595,366.334473 565.205872,427.571350 
	C566.107361,432.373322 567.656067,437.053772 568.903992,441.790710 
	C569.956360,435.546692 569.711182,429.549835 570.025391,423.582428 
	C570.338928,417.627533 570.948425,411.660187 571.882568,405.770355 
	C580.166077,353.543060 601.326294,306.469208 629.943481,262.512573 
	C640.802673,245.832611 654.408936,231.430283 669.970520,218.401794 
	C670.132629,218.047440 670.294739,217.693085 670.456848,217.338715 
	C669.951172,217.533508 669.445435,217.728302 668.231262,218.058701 
M616.200256,523.471252 
	C616.319885,523.370483 616.439514,523.269775 616.559143,523.169067 
	C616.274536,523.349060 615.989929,523.529114 616.132874,522.927246 
	C614.746094,518.347778 613.012695,513.841248 612.031555,509.176392 
	C607.358826,486.961945 609.195435,464.787323 613.504700,442.808136 
	C621.108276,404.026825 634.944214,367.329132 653.234009,332.452118 
	C671.531982,297.559540 692.948853,264.740356 721.352539,236.874954 
	C736.766113,221.753433 753.495789,209.110596 774.419800,202.774658 
	C775.514526,202.443192 776.668152,202.284393 777.732483,201.881653 
	C778.597595,201.554291 779.369812,200.981339 780.445557,200.367676 
	C762.594727,197.097229 745.955627,200.009354 730.254028,207.522537 
	C709.965332,217.230682 692.857117,231.523392 677.010864,247.210327 
	C642.687683,281.188507 615.909729,320.351410 597.616028,365.160034 
	C585.690430,394.370544 575.932983,424.008575 578.945679,456.328949 
	C580.011841,467.766174 582.497620,478.756348 589.120850,488.174683 
	C597.613953,500.252136 606.817871,511.829773 616.200256,523.471252 
M931.076904,321.135254 
	C931.166504,321.132416 931.256042,321.129578 931.345642,321.126770 
	C931.215820,321.084961 931.085999,321.043152 931.009949,320.236267 
	C930.924683,319.744690 930.916931,319.223694 930.742981,318.765808 
	C921.590149,294.672455 901.450623,286.011047 875.497437,289.555969 
	C859.146484,291.789276 844.220215,298.220398 830.047485,306.509491 
	C825.073792,309.418457 820.019165,312.188934 815.177979,314.280853 
	C820.127014,296.267120 822.663269,277.901703 822.722900,259.239105 
	C822.732239,256.320099 821.146057,253.395981 821.029053,249.953262 
	C836.058655,241.076706 851.652771,234.544510 869.877258,238.736298 
	C859.340637,229.323303 847.721863,223.410706 833.674805,224.081100 
	C827.100769,224.394836 820.561951,225.448456 814.230469,225.543152 
	C817.088257,224.647568 816.441956,222.988739 815.386780,220.988495 
	C809.582886,209.986710 801.058533,203.071838 787.047852,202.346985 
	C789.478271,204.417831 791.526489,205.588898 792.779297,207.331680 
	C797.686584,214.158218 802.342773,221.165192 806.730957,228.723267 
	C800.340210,231.477783 793.748108,233.845596 787.592407,237.051300 
	C754.476318,254.297180 727.612610,279.184479 703.607483,307.275085 
	C674.701172,341.101166 653.188416,379.397095 637.608154,420.967133 
	C626.527466,450.531586 620.172180,480.976471 625.147583,512.734253 
	C627.316284,526.576294 632.998474,539.001038 644.869141,547.340515 
	C659.351440,557.514709 675.070801,565.444946 691.878662,571.099670 
	C693.362915,571.598999 695.057739,571.472412 696.337219,571.778320 
	C696.337219,571.778320 696.239807,572.013550 696.239807,572.013550 
	C696.239807,572.013550 696.586304,571.688904 696.001404,571.319214 
	C681.945007,559.350159 678.155518,543.000244 677.001831,525.743042 
	C675.338013,500.854065 680.277466,476.805450 687.079529,453.046509 
	C706.827515,384.068756 741.051270,323.505981 792.138611,272.829437 
	C797.613647,267.398438 804.012207,262.898346 810.442810,258.801819 
	C810.137756,263.255829 810.410828,267.842316 809.426331,272.140686 
	C805.416138,289.648743 800.987427,307.060669 796.830017,324.535858 
	C796.494507,325.945923 797.045410,327.566895 796.656006,329.868164 
	C792.266907,333.950134 787.824951,337.976837 783.497070,342.122742 
	C745.707520,378.323700 716.804077,420.329468 700.591553,470.419006 
	C693.412170,492.600281 689.403137,515.333618 693.098389,538.738342 
	C696.839111,562.430481 709.684814,577.019897 730.707458,579.465881 
	C743.157104,580.914429 755.912964,579.730835 770.097229,579.730835 
	C753.065491,575.901306 744.892700,565.178162 740.653015,550.669006 
	C735.427185,532.785583 737.848633,514.980896 741.593079,497.303070 
	C749.484253,460.048370 765.951477,426.592407 787.556702,395.508606 
	C808.182678,365.833649 832.074951,339.422913 863.139954,320.192932 
	C873.953918,313.498779 885.603638,309.287537 898.243347,308.119202 
	C911.227905,306.918976 921.963928,311.892303 931.076904,321.135254 
M934.670166,392.606049 
	C935.431580,391.073456 936.554199,389.615265 936.887817,387.994598 
	C937.952454,382.823212 939.108398,377.622345 939.529968,372.376648 
	C940.450500,360.921112 940.871582,349.436066 937.137939,338.259705 
	C937.722046,355.484009 935.676025,372.358368 930.432617,388.678680 
	C922.579956,380.272125 912.591858,376.793793 901.434326,377.235992 
	C894.262756,377.520264 887.143738,379.131714 880.133423,379.429199 
	C880.700562,378.424591 881.525269,377.484650 881.796204,376.405640 
	C885.870728,360.179749 890.044739,343.975220 893.795776,327.673676 
	C895.070557,322.133850 895.235840,316.338684 895.912720,310.620972 
	C886.401794,310.221069 884.265076,311.813019 882.546753,319.755737 
	C881.530701,324.452362 880.806396,329.262939 879.255798,333.783844 
	C873.729614,349.895477 867.896057,365.901581 862.206055,381.957245 
	C861.471863,384.028870 859.073486,386.856812 863.185486,387.435760 
	C859.165283,389.769501 855.061279,391.971008 851.138123,394.457916 
	C819.787476,414.331085 795.939148,441.257843 778.645752,473.806641 
	C767.877930,494.073578 760.970642,515.616150 763.978821,539.229126 
	C766.071594,555.656555 778.272705,567.977783 794.576965,570.045105 
	C809.548401,571.943481 823.445068,568.191650 836.556213,561.676941 
	C886.997253,536.613464 920.137268,496.681000 936.597534,443.010651 
	C941.732422,426.267761 942.321106,409.288239 934.670166,392.606049 
M885.104187,279.310333 
	C885.521729,281.903992 885.939331,284.497650 886.416382,287.460693 
	C888.541748,287.590332 890.502258,287.656494 892.451355,287.841827 
	C895.065796,288.090485 896.212402,286.913971 895.890625,284.369476 
	C894.448425,272.965302 892.414307,261.677826 885.329163,252.210709 
	C882.745239,248.758148 879.182007,246.038528 876.065613,242.984528 
	C875.649597,243.338531 875.233582,243.692535 874.817566,244.046555 
	C881.043091,254.690689 884.359436,266.174438 885.104187,279.310333 
z"/>
<path fill="#135AAA" opacity="1.000000" stroke="none" 
	d="
M880.001160,380.148254 
	C887.143738,379.131714 894.262756,377.520264 901.434326,377.235992 
	C912.591858,376.793793 922.579956,380.272125 930.723999,388.779144 
	C931.015442,388.879608 930.978027,388.928070 931.040527,389.232758 
	C931.409790,389.811127 931.716553,390.084839 932.054932,390.482269 
	C932.159912,390.767944 932.276001,390.888916 932.581665,391.276428 
	C933.170227,392.073090 933.612000,392.562225 934.079102,393.040527 
	C934.104492,393.029694 934.063293,392.994812 934.063293,392.994812 
	C942.321106,409.288239 941.732422,426.267761 936.597534,443.010651 
	C920.137268,496.681000 886.997253,536.613464 836.556213,561.676941 
	C823.445068,568.191650 809.548401,571.943481 794.576965,570.045105 
	C778.272705,567.977783 766.071594,555.656555 763.978821,539.229126 
	C760.970642,515.616150 767.877930,494.073578 778.645752,473.806641 
	C795.939148,441.257843 819.787476,414.331085 851.138123,394.457916 
	C855.061279,391.971008 859.165283,389.769501 863.629639,387.134521 
	C865.027161,386.397888 865.980652,385.962494 867.276123,385.439026 
	C868.111694,384.917145 868.605286,384.483368 869.057007,384.044769 
	C869.015137,384.039978 869.005676,384.123688 869.362427,384.231079 
	C871.176636,383.582611 872.634094,382.826752 874.055542,382.064331 
	C874.019592,382.057770 874.006531,382.129761 874.349731,382.267151 
	C875.489868,381.951385 876.286926,381.498291 877.046875,381.035034 
	C877.009705,381.024841 876.989441,381.099182 877.341125,381.196838 
	C878.488220,380.879822 879.283691,380.465179 880.035278,380.055542 
	C879.991394,380.060516 880.001160,380.148254 880.001160,380.148254 
z"/>
<path fill="#1359AA" opacity="1.000000" stroke="none" 
	d="
M814.007202,226.166748 
	C820.561951,225.448456 827.100769,224.394836 833.674805,224.081100 
	C847.721863,223.410706 859.340637,229.323303 869.877258,238.736298 
	C851.652771,234.544510 836.058655,241.076706 820.691040,250.177368 
	C820.353027,250.401474 820.117615,250.539642 819.812256,250.707169 
	C818.650879,251.586426 817.794922,252.298141 816.976440,253.013000 
	C817.013855,253.016129 817.020203,252.941254 816.689087,252.957245 
	C815.552368,253.650223 814.746704,254.327209 813.974854,255.006958 
	C814.008667,255.009705 814.008545,254.941849 813.669312,254.986115 
	C813.036072,255.357346 812.742126,255.684311 812.271851,256.055603 
	C811.762024,256.243805 811.428528,256.387695 810.817871,256.716003 
	C810.338684,257.274506 810.136597,257.648590 809.965576,258.024902 
	C809.996704,258.027161 809.982361,257.966461 809.982361,257.966431 
	C804.012207,262.898346 797.613647,267.398438 792.138611,272.829437 
	C741.051270,323.505981 706.827515,384.068756 687.079529,453.046509 
	C680.277466,476.805450 675.338013,500.854065 677.001831,525.743042 
	C678.155518,543.000244 681.945007,559.350159 696.293823,571.481812 
	C696.586243,571.644409 696.654724,571.636475 696.654724,571.636475 
	C695.057739,571.472412 693.362915,571.598999 691.878662,571.099670 
	C675.070801,565.444946 659.351440,557.514709 644.869141,547.340515 
	C632.998474,539.001038 627.316284,526.576294 625.147583,512.734253 
	C620.172180,480.976471 626.527466,450.531586 637.608154,420.967133 
	C653.188416,379.397095 674.701172,341.101166 703.607483,307.275085 
	C727.612610,279.184479 754.476318,254.297180 787.592407,237.051300 
	C793.748108,233.845596 800.340210,231.477783 806.885437,228.381317 
	C807.039917,228.039368 806.974426,228.092026 807.351440,228.157074 
	C808.845642,227.814789 809.962830,227.407455 811.031372,226.988434 
	C810.982788,226.976730 810.959229,227.073990 811.319336,227.107544 
	C812.483093,226.781815 813.286743,226.422516 814.043640,226.068237 
	C813.996887,226.073257 814.007202,226.166748 814.007202,226.166748 
z"/>
<path fill="#216A26" opacity="1.000000" stroke="none" 
	d="
M815.001526,315.022705 
	C820.019165,312.188934 825.073792,309.418457 830.047485,306.509491 
	C844.220215,298.220398 859.146484,291.789276 875.497437,289.555969 
	C901.450623,286.011047 921.590149,294.672455 930.742981,318.765808 
	C930.916931,319.223694 930.924683,319.744690 931.003174,320.601685 
	C930.996460,320.967102 931.032532,320.928558 931.032532,320.928558 
	C921.963928,311.892303 911.227905,306.918976 898.243347,308.119202 
	C885.603638,309.287537 873.953918,313.498779 863.139954,320.192932 
	C832.074951,339.422913 808.182678,365.833649 787.556702,395.508606 
	C765.951477,426.592407 749.484253,460.048370 741.593079,497.303070 
	C737.848633,514.980896 735.427185,532.785583 740.653015,550.669006 
	C744.892700,565.178162 753.065491,575.901306 770.097229,579.730835 
	C755.912964,579.730835 743.157104,580.914429 730.707458,579.465881 
	C709.684814,577.019897 696.839111,562.430481 693.098389,538.738342 
	C689.403137,515.333618 693.412170,492.600281 700.591553,470.419006 
	C716.804077,420.329468 745.707520,378.323700 783.497070,342.122742 
	C787.824951,337.976837 792.266907,333.950134 797.048584,329.393005 
	C801.785522,325.281128 806.129944,321.644440 810.849182,318.013062 
	C812.153320,317.321838 813.082581,316.625336 814.008667,315.967163 
	C814.005432,316.005463 813.928772,315.999146 814.208008,315.937988 
	C814.669250,315.565399 814.851318,315.253937 815.048462,314.971741 
	C815.063538,315.000946 815.001526,315.022705 815.001526,315.022705 
z"/>
<path fill="#1359A9" opacity="1.000000" stroke="none" 
	d="
M615.715515,523.622742 
	C606.817871,511.829773 597.613953,500.252136 589.120850,488.174683 
	C582.497620,478.756348 580.011841,467.766174 578.945679,456.328949 
	C575.932983,424.008575 585.690430,394.370544 597.616028,365.160034 
	C615.909729,320.351410 642.687683,281.188507 677.010864,247.210327 
	C692.857117,231.523392 709.965332,217.230682 730.254028,207.522537 
	C745.955627,200.009354 762.594727,197.097229 780.445557,200.367676 
	C779.369812,200.981339 778.597595,201.554291 777.732483,201.881653 
	C776.668152,202.284393 775.514526,202.443192 774.419800,202.774658 
	C753.495789,209.110596 736.766113,221.753433 721.352539,236.874954 
	C692.948853,264.740356 671.531982,297.559540 653.234009,332.452118 
	C634.944214,367.329132 621.108276,404.026825 613.504700,442.808136 
	C609.195435,464.787323 607.358826,486.961945 612.031555,509.176392 
	C613.012695,513.841248 614.746094,518.347778 615.932556,523.292358 
	C615.732239,523.657532 615.715515,523.622742 615.715515,523.622742 
z"/>
<path fill="#206925" opacity="1.000000" stroke="none" 
	d="
M669.674316,218.633713 
	C654.408936,231.430283 640.802673,245.832611 629.943481,262.512573 
	C601.326294,306.469208 580.166077,353.543060 571.882568,405.770355 
	C570.948425,411.660187 570.338928,417.627533 570.025391,423.582428 
	C569.711182,429.549835 569.956360,435.546692 568.903992,441.790710 
	C567.656067,437.053772 566.107361,432.373322 565.205872,427.571350 
	C553.709595,366.334473 568.923096,312.057404 608.268494,264.256134 
	C624.685059,244.311432 644.944336,229.175812 668.766907,218.170853 
	C669.426514,218.399902 669.550415,218.516815 669.674316,218.633713 
z"/>
<path fill="#7F4200" opacity="1.000000" stroke="none" 
	d="
M866.934082,385.527100 
	C865.980652,385.962494 865.027161,386.397888 864.063843,386.815857 
	C859.073486,386.856812 861.471863,384.028870 862.206055,381.957245 
	C867.896057,365.901581 873.729614,349.895477 879.255798,333.783844 
	C880.806396,329.262939 881.530701,324.452362 882.546753,319.755737 
	C884.265076,311.813019 886.401794,310.221069 895.912720,310.620972 
	C895.235840,316.338684 895.070557,322.133850 893.795776,327.673676 
	C890.044739,343.975220 885.870728,360.179749 881.796204,376.405640 
	C881.525269,377.484650 880.700562,378.424591 880.067261,379.788727 
	C880.001160,380.148254 879.991394,380.060516 879.683594,379.962036 
	C878.580322,380.275421 877.784912,380.687317 876.989441,381.099182 
	C876.989441,381.099182 877.009705,381.024841 876.691528,380.963257 
	C875.584351,381.311035 874.795471,381.720398 874.006531,382.129761 
	C874.006531,382.129761 874.019592,382.057770 873.689758,382.004486 
	C871.908508,382.675385 870.457092,383.399536 869.005676,384.123718 
	C869.005676,384.123688 869.015137,384.039978 868.681763,384.045288 
	C867.876892,384.542786 867.405518,385.034973 866.934082,385.527100 
z"/>
<path fill="#7E4100" opacity="1.000000" stroke="none" 
	d="
M810.474365,318.007751 
	C806.129944,321.644440 801.785522,325.281128 797.312744,329.003845 
	C797.045410,327.566895 796.494507,325.945923 796.830017,324.535858 
	C800.987427,307.060669 805.416138,289.648743 809.426331,272.140686 
	C810.410828,267.842316 810.137756,263.255829 810.212585,258.384155 
	C809.982361,257.966461 809.996704,258.027161 810.344727,257.964172 
	C810.826782,257.444641 810.960876,256.988098 811.094971,256.531555 
	C811.428528,256.387695 811.762024,256.243805 812.463989,256.330811 
	C813.224426,256.021759 813.616516,255.481812 814.008545,254.941864 
	C814.008545,254.941849 814.008667,255.009705 814.321655,255.219971 
	C815.429871,254.600601 816.225037,253.770935 817.020203,252.941254 
	C817.020203,252.941254 817.013855,253.016129 817.374634,253.191254 
	C818.529541,252.424149 819.323608,251.481903 820.117615,250.539642 
	C820.117615,250.539642 820.353027,250.401474 820.325317,250.437851 
	C821.146057,253.395981 822.732239,256.320099 822.722900,259.239105 
	C822.663269,277.901703 820.127014,296.267120 815.089722,314.651794 
	C815.001526,315.022705 815.063538,315.000946 814.769714,315.040710 
	C814.293518,315.386688 814.111145,315.692902 813.928772,315.999146 
	C813.928772,315.999146 814.005432,316.005463 813.650269,315.932861 
	C812.354797,316.576080 811.414612,317.291901 810.474365,318.007751 
z"/>
<path fill="#7E4100" opacity="1.000000" stroke="none" 
	d="
M885.076904,278.863220 
	C884.359436,266.174438 881.043091,254.690689 874.817566,244.046555 
	C875.233582,243.692535 875.649597,243.338531 876.065613,242.984528 
	C879.182007,246.038528 882.745239,248.758148 885.329163,252.210709 
	C892.414307,261.677826 894.448425,272.965302 895.890625,284.369476 
	C896.212402,286.913971 895.065796,288.090485 892.451355,287.841827 
	C890.502258,287.656494 888.541748,287.590332 886.416382,287.460693 
	C885.939331,284.497650 885.521729,281.903992 885.076904,278.863220 
z"/>
<path fill="#7E4100" opacity="1.000000" stroke="none" 
	d="
M807.066101,228.072235 
	C802.342773,221.165192 797.686584,214.158218 792.779297,207.331680 
	C791.526489,205.588898 789.478271,204.417831 787.047852,202.346985 
	C801.058533,203.071838 809.582886,209.986710 815.386780,220.988495 
	C816.441956,222.988739 817.088257,224.647568 814.118835,225.854950 
	C814.007202,226.166748 813.996887,226.073257 813.686218,226.017319 
	C812.570068,226.332230 811.764648,226.703094 810.959229,227.073975 
	C810.959229,227.073990 810.982788,226.976730 810.655396,226.921387 
	C809.210205,227.274689 808.092285,227.683365 806.974426,228.092026 
	C806.974426,228.092026 807.039917,228.039368 807.066101,228.072235 
z"/>
<path fill="#7E4100" opacity="1.000000" stroke="none" 
	d="
M932.434875,390.968872 
	C932.276001,390.888916 932.159912,390.767944 932.005127,390.158173 
	C931.608459,389.449585 931.293213,389.188843 930.978027,388.928101 
	C930.978027,388.928070 931.015442,388.879608 931.034607,388.902771 
	C935.676025,372.358368 937.722046,355.484009 937.137939,338.259705 
	C940.871582,349.436066 940.450500,360.921112 939.529968,372.376648 
	C939.108398,377.622345 937.952454,382.823212 936.887817,387.994598 
	C936.554199,389.615265 935.431580,391.073456 934.366699,392.800415 
	C934.063293,392.994812 934.104492,393.029694 934.084595,392.669006 
	C933.521423,391.861816 932.978149,391.415344 932.434875,390.968872 
z"/>
<path fill="#206925" opacity="1.000000" stroke="none" 
	d="
M669.121155,218.103058 
	C669.445435,217.728302 669.951172,217.533508 670.456909,217.338715 
	C670.294739,217.693085 670.132629,218.047440 669.822388,218.517761 
	C669.550415,218.516815 669.426514,218.399902 669.121155,218.103058 
z"/>
<path fill="#216A26" opacity="1.000000" stroke="none" 
	d="
M930.976318,320.984192 
	C931.085999,321.043152 931.215820,321.084961 931.345642,321.126770 
	C931.256042,321.129578 931.166504,321.132416 931.054688,321.031921 
	C931.032532,320.928558 930.996460,320.967102 930.976318,320.984192 
z"/>
<path fill="#1359A9" opacity="1.000000" stroke="none" 
	d="
M615.718750,523.683350 
	C615.989929,523.529114 616.274536,523.349060 616.559143,523.169067 
	C616.439514,523.269775 616.319885,523.370483 615.957886,523.546997 
	C615.715515,523.622742 615.732239,523.657532 615.718750,523.683350 
z"/>
<path fill="#1359AA" opacity="1.000000" stroke="none" 
	d="
M696.586304,571.666626 
	C696.586304,571.688904 696.239807,572.013550 696.239807,572.013550 
	C696.239807,572.013550 696.337219,571.778320 696.495972,571.707397 
	C696.654724,571.636475 696.586243,571.644409 696.586304,571.666626 
z"/>
<path fill="#000000" opacity="1.000000" stroke="none" 
	d="
M869.362427,384.231079 
	C870.457092,383.399536 871.908508,382.675385 873.725708,382.011047 
	C872.634094,382.826752 871.176636,383.582611 869.362427,384.231079 
z"/>
<path fill="#000000" opacity="1.000000" stroke="none" 
	d="
M877.341125,381.196838 
	C877.784912,380.687317 878.580322,380.275421 879.727417,379.957031 
	C879.283691,380.465179 878.488220,380.879822 877.341125,381.196838 
z"/>
<path fill="#000000" opacity="1.000000" stroke="none" 
	d="
M874.349731,382.267151 
	C874.795471,381.720398 875.584351,381.311035 876.728638,380.973419 
	C876.286926,381.498291 875.489868,381.951385 874.349731,382.267151 
z"/>
<path fill="#000000" opacity="1.000000" stroke="none" 
	d="
M867.276123,385.439026 
	C867.405518,385.034973 867.876892,384.542786 868.723572,384.050079 
	C868.605286,384.483368 868.111694,384.917145 867.276123,385.439026 
z"/>
<path fill="#000000" opacity="1.000000" stroke="none" 
	d="
M932.581665,391.276428 
	C932.978149,391.415344 933.521423,391.861816 934.059204,392.679840 
	C933.612000,392.562225 933.170227,392.073090 932.581665,391.276428 
z"/>
<path fill="#000000" opacity="1.000000" stroke="none" 
	d="
M931.040527,389.232788 
	C931.293213,389.188843 931.608459,389.449585 931.973511,390.034454 
	C931.716553,390.084839 931.409790,389.811127 931.040527,389.232788 
z"/>
<path fill="#000000" opacity="1.000000" stroke="none" 
	d="
M807.351440,228.157074 
	C808.092285,227.683365 809.210205,227.274689 810.704041,226.933075 
	C809.962830,227.407455 808.845642,227.814789 807.351440,228.157074 
z"/>
<path fill="#000000" opacity="1.000000" stroke="none" 
	d="
M816.689087,252.957245 
	C816.225037,253.770935 815.429871,254.600601 814.287842,255.217224 
	C814.746704,254.327209 815.552368,253.650223 816.689087,252.957245 
z"/>
<path fill="#000000" opacity="1.000000" stroke="none" 
	d="
M819.812256,250.707184 
	C819.323608,251.481903 818.529541,252.424149 817.337219,253.188126 
	C817.794922,252.298141 818.650879,251.586426 819.812256,250.707184 
z"/>
<path fill="#000000" opacity="1.000000" stroke="none" 
	d="
M811.319336,227.107544 
	C811.764648,226.703094 812.570068,226.332230 813.732971,226.012299 
	C813.286743,226.422516 812.483093,226.781815 811.319336,227.107544 
z"/>
<path fill="#000000" opacity="1.000000" stroke="none" 
	d="
M813.669312,254.986130 
	C813.616516,255.481812 813.224426,256.021759 812.640259,256.286499 
	C812.742126,255.684311 813.036072,255.357346 813.669312,254.986130 
z"/>
<path fill="#000000" opacity="1.000000" stroke="none" 
	d="
M810.817871,256.716003 
	C810.960876,256.988098 810.826782,257.444641 810.313599,257.961945 
	C810.136597,257.648590 810.338684,257.274506 810.817871,256.716003 
z"/>
<path fill="#000000" opacity="1.000000" stroke="none" 
	d="
M810.849182,318.013062 
	C811.414612,317.291901 812.354797,316.576080 813.653442,315.894531 
	C813.082581,316.625336 812.153320,317.321838 810.849182,318.013062 
z"/>
<path fill="#000000" opacity="1.000000" stroke="none" 
	d="
M814.208008,315.937988 
	C814.111145,315.692902 814.293518,315.386688 814.754639,315.011475 
	C814.851318,315.253937 814.669250,315.565399 814.208008,315.937988 
z"/>
</svg>