<?xml version="1.0" encoding="UTF-8"?>
<svg id="Capa_2" data-name="Capa 2" xmlns="http://www.w3.org/2000/svg" viewBox="0 0 87.49 60.33">
  <defs>
    <style>
      .cls-1 {
        font-family: Georgia-Bold, Georgia;
        font-size: 15.14px;
        font-weight: 700;
      }
    </style>
  </defs>
  <g id="Capa_1-2" data-name="Capa 1">
    <g>
      <g>
        <path d="M39.51,6.01l8.92,15.76-.04.42c-1.03,1.71-2.15,3.38-3.1,5.15-.11.2-.73,1.33-.63,1.47l5.02-3.71,14.02,17.07-14.54-4.87c-2.95-5.16-6.04-10.17-9.07-15.24l2.72-4.94-4.5,1.76L25.77,1.69c-.17.13.03.29.1.39,2.44,3.64,4.97,7.2,7.42,10.84l-.15.06L22.65.25l.05-.25,16.81,6.01Z"/>
        <polygon points="64.83 4.27 51.41 19.88 51.28 19.83 53.17 17.08 55.45 13.3 50.95 19.76 45.7 16.09 45.81 15.72 49.76 9.2 64.83 4.27"/>
        <polygon points="39.17 37.36 24.56 41.7 37.92 27.06 43.18 30.95 39.17 37.36"/>
      </g>
      <text class="cls-1" transform="translate(0 55.74)"><tspan x="0" y="0">Xen Digital</tspan></text>
    </g>
  </g>
</svg>