<?xml version="1.0" encoding="UTF-8"?>
<svg id="Capa_2" data-name="Capa 2" xmlns="http://www.w3.org/2000/svg" viewBox="0 0 124.88 76.33">
  <g id="Capa_1-2" data-name="Capa 1">
    <path d="M0,0v76.33h124.88V0H0ZM56.34,59.86l-19.49,5.79,17.82-19.53,7.02,5.18-5.35,8.55ZM69.68,59.8c-3.93-6.89-8.05-13.56-12.1-20.33l3.63-6.59-6,2.34-16.73-22.94c-.22.17.04.38.14.52,3.25,4.86,6.63,9.61,9.9,14.45l-.2.08-14-16.97.06-.34,22.42,8.02,11.9,21.02-.05.56c-1.38,2.28-2.86,4.5-4.14,6.87-.14.26-.98,1.78-.84,1.96l6.69-4.94,18.71,22.77-19.39-6.49ZM72.67,36.55l-.18-.07,2.53-3.66,3.04-5.04-6,8.62-7-4.9.14-.49,5.27-8.7,20.1-6.57-17.9,20.82Z"/>
  </g>
</svg>