<?xml version="1.0" encoding="UTF-8"?>
<svg id="Capa_2" data-name="Capa 2" xmlns="http://www.w3.org/2000/svg" viewBox="0 0 128.2 54.57">
  <defs>
    <style>
      .cls-1 {
        font-family: Georgia-Bold, Georgia;
        font-size: 19.92px;
        font-weight: 700;
      }
    </style>
  </defs>
  <g id="Capa_1-2" data-name="Capa 1">
    <g>
      <g>
        <path d="M21.81,7.77l11.54,20.38-.05.55c-1.34,2.21-2.78,4.37-4.02,6.67-.14.26-.95,1.72-.82,1.9l6.49-4.79,18.14,22.09-18.8-6.3c-3.81-6.68-7.81-13.15-11.74-19.72l3.52-6.39-5.82,2.27L4.04,2.18c-.21.17.04.37.13.5,3.15,4.71,6.43,9.32,9.6,14.02l-.2.08L0,.33l.06-.33,21.75,7.77Z"/>
        <polygon points="54.57 5.53 37.2 25.72 37.03 25.65 39.48 22.1 42.43 17.21 36.61 25.57 29.82 20.81 29.96 20.33 35.07 11.9 54.57 5.53"/>
        <polygon points="21.37 48.33 2.47 53.94 19.75 35.01 26.55 40.03 21.37 48.33"/>
      </g>
      <text class="cls-1" transform="translate(58.24 23.41) scale(1.02 1)"><tspan x="0" y="0">Xen</tspan><tspan x="0" y="23.91">Digital</tspan></text>
    </g>
  </g>
</svg>