<?xml version="1.0" encoding="UTF-8"?>
<svg id="Capa_2" data-name="Capa 2" xmlns="http://www.w3.org/2000/svg" viewBox="0 0 146.3 70.91">
  <g id="Capa_3" data-name="Capa 3">
    <g>
      <path d="M88.36,53.6c0,.16.05.34.14.54.09.19.24.38.43.54.23.19.49.34.77.44.28.11.71.16,1.28.16.85,0,1.5-.16,1.94-.49s.67-.85.67-1.57c0-.22-.06-.44-.19-.66-.12-.22-.4-.39-.84-.53-.24-.04-.63-.07-1.17-.08-.54-.01-1.29-.02-2.24-.02-.23.19-.42.42-.58.69-.16.27-.23.59-.23.96Z"/>
      <path d="M71.95,40.51c-.38-.53-.86-.94-1.43-1.24-.57-.29-1.22-.44-1.94-.44-.23,0-.49,0-.79.01-.29,0-.51.02-.66.02v10.48c0,.23.03.44.09.62.06.18.17.34.32.47.15.14.34.24.56.32.22.07.51.11.87.11.75,0,1.38-.14,1.92-.41s.97-.67,1.3-1.2c.32-.52.56-1.14.71-1.85.15-.72.22-1.54.22-2.48s-.1-1.75-.3-2.5c-.2-.75-.49-1.39-.87-1.93Z"/>
      <path d="M84.63,20.63c-.04-.41-.11-.74-.21-1-.11-.31-.27-.54-.46-.69-.19-.16-.44-.23-.74-.23-.51,0-.91.25-1.21.76-.3.51-.47,1.31-.49,2.4l3.17-.04c0-.39-.02-.79-.06-1.2Z"/>
      <path d="M90.45,42.59c-.26,0-.48.06-.67.18-.19.12-.35.29-.47.52-.11.22-.19.48-.23.77-.04.3-.06.6-.06.91,0,.71.13,1.29.38,1.74.25.45.61.68,1.07.68s.84-.2,1.1-.61c.25-.41.38-.99.38-1.73s-.12-1.36-.37-1.8c-.24-.44-.62-.66-1.13-.66Z"/>
      <path d="M0,0v70.91h146.3V0H0ZM89.27,18.34l4.72-.25.15.15v1.41h.04c.18-.16.41-.36.67-.58s.51-.41.73-.55c.24-.16.56-.29.96-.4s.82-.17,1.27-.17c1.07,0,1.88.3,2.42.9.54.6.81,1.4.81,2.39v4.77c0,.24.04.43.11.57.07.14.21.26.41.34.11.05.24.09.39.14.15.05.33.08.53.1v.71h-5.94v-.71c.12-.01.28-.03.45-.05.18-.02.31-.05.41-.1.14-.07.24-.18.3-.31.06-.14.09-.34.09-.6v-4.55c0-.66-.12-1.16-.37-1.49-.25-.33-.61-.5-1.1-.5-.26,0-.51.04-.74.12-.23.08-.45.19-.67.34-.19.13-.34.26-.46.4-.12.14-.21.26-.29.36v5.22c0,.23.03.42.1.57.07.15.17.27.33.35.11.06.24.11.4.16.16.05.31.08.46.1v.71h-6.01v-.71c.17-.01.33-.03.5-.05.17-.02.31-.05.43-.09.21-.07.36-.18.43-.33.08-.15.12-.34.12-.58v-5.66c0-.2-.05-.4-.16-.59s-.24-.35-.42-.48c-.12-.08-.27-.14-.45-.19-.18-.05-.38-.09-.6-.11v-.71ZM101.99,38.49c0,.49-.19.91-.58,1.26-.38.35-.84.52-1.37.52s-.99-.17-1.38-.52c-.39-.35-.58-.77-.58-1.26s.19-.92.58-1.26c.39-.35.84-.53,1.38-.53s.99.17,1.37.53c.38.35.57.77.57,1.26ZM24.02,52.77l-18.9,5.62,17.28-18.94,6.81,5.03-5.18,8.3ZM36.96,52.71c-3.81-6.68-7.81-13.15-11.74-19.72l3.52-6.39-5.82,2.27L6.69,6.62c-.21.17.04.37.13.5,3.15,4.71,6.43,9.32,9.6,14.02l-.2.08L2.65,4.77l.06-.33,21.75,7.77,11.54,20.38-.05.55c-1.34,2.21-2.78,4.37-4.02,6.67-.14.26-.95,1.72-.82,1.9l6.49-4.79,18.14,22.09-18.8-6.3ZM39.86,30.16l-.18-.07,2.45-3.55,2.95-4.89-5.82,8.36-6.79-4.75.14-.48,5.11-8.43,19.5-6.37-17.36,20.19ZM76.37,48c-.47.87-1.1,1.57-1.87,2.13-.79.55-1.69.96-2.69,1.23-1.01.27-2.06.4-3.16.4h-7.07v-.76c.21,0,.47-.03.79-.06.32-.03.53-.07.63-.12.24-.1.4-.23.49-.39.09-.17.14-.36.14-.6v-9.79c0-.22-.04-.42-.13-.6-.09-.18-.25-.32-.5-.43s-.52-.19-.8-.22c-.28-.04-.5-.06-.65-.08v-.76h7.46c.8,0,1.65.1,2.56.3.91.2,1.79.57,2.63,1.12.86.55,1.55,1.29,2.08,2.2.53.92.79,2.04.79,3.37,0,1.17-.24,2.18-.71,3.05ZM77.29,27.85h-8.55v-.76c.82-.05,1.35-.12,1.58-.21.24-.09.36-.22.36-.37,0-.08-.04-.22-.13-.4-.09-.19-.21-.4-.36-.64-.23-.38-.54-.86-.92-1.43-.39-.57-.79-1.17-1.2-1.77-1.38,1.58-2.26,2.62-2.63,3.14-.37.52-.56.86-.56,1.03,0,.09.01.17.04.23.03.06.11.12.23.18.09.05.25.1.47.15s.49.08.8.11v.76h-5.45v-.76c.28-.02.51-.05.68-.09.17-.04.33-.09.5-.17.38-.18.72-.4,1.02-.67.3-.27.6-.58.92-.94.46-.51.98-1.09,1.56-1.74.58-.65,1.19-1.34,1.83-2.07-.61-.9-1.21-1.78-1.82-2.63-.61-.85-1.12-1.57-1.54-2.17-.21-.3-.47-.6-.79-.9s-.64-.51-.99-.64c-.17-.07-.36-.13-.57-.18-.21-.05-.47-.08-.76-.1v-.76h8.57v.76c-.67.03-1.16.08-1.48.18s-.48.23-.48.41c0,.09.03.21.09.35.06.14.19.36.37.66.16.26.4.64.74,1.14.33.5.71,1.07,1.13,1.7,1.24-1.46,2.03-2.41,2.34-2.85.32-.44.48-.75.48-.91,0-.19-.09-.33-.28-.42-.18-.09-.61-.17-1.29-.24v-.76h5.47v.76c-.25,0-.46.03-.62.07-.16.04-.35.1-.56.18-.41.18-.75.41-1.03.67-.28.27-.58.58-.91.93-.49.53-.96,1.05-1.4,1.55-.45.5-.99,1.12-1.64,1.85.8,1.18,1.48,2.17,2.05,2.96.57.8,1.1,1.55,1.61,2.24.2.3.45.6.77.9.31.3.64.52.97.65.16.06.34.11.54.17.2.05.47.09.81.11v.76ZM84.6,51.76h-6.25v-.71c.17-.01.34-.03.5-.05.17-.02.31-.05.43-.1.21-.08.36-.19.44-.33.09-.15.13-.34.13-.58v-5.66c0-.23-.05-.43-.16-.6s-.24-.31-.4-.41c-.12-.08-.3-.15-.54-.22s-.46-.12-.66-.14v-.71l4.84-.25.15.15v7.72c0,.23.05.42.15.58.1.16.24.28.42.36.13.06.28.11.44.16.16.05.32.08.49.1v.71ZM79.25,38.49c0-.49.19-.92.58-1.26.38-.35.84-.53,1.38-.53s.99.17,1.37.53c.38.35.57.77.57,1.26s-.19.91-.58,1.26c-.38.35-.84.52-1.37.52s-.99-.17-1.38-.52c-.39-.35-.58-.77-.58-1.26ZM83.62,28.16c-.98,0-1.82-.14-2.53-.41-.71-.27-1.29-.64-1.75-1.1-.46-.46-.81-1-1.03-1.63-.23-.63-.34-1.31-.34-2.04,0-.66.12-1.3.37-1.9s.6-1.15,1.05-1.62c.45-.46,1.01-.83,1.7-1.12.68-.29,1.45-.43,2.29-.43.92,0,1.68.11,2.28.33.59.22,1.08.52,1.47.91.38.37.65.81.82,1.31s.26,1.03.26,1.58v.63h-6.68c0,1.33.26,2.34.78,3.04.52.69,1.35,1.04,2.48,1.04.62,0,1.18-.17,1.67-.5.49-.33.92-.76,1.27-1.27l.75.54c-.23.37-.51.72-.83,1.05-.33.33-.7.61-1.11.84-.44.25-.89.43-1.34.56s-.97.19-1.56.19ZM96.58,43.2h-2.18c.26.28.45.58.58.9.13.32.19.65.19.99,0,.45-.12.87-.37,1.26-.24.39-.56.71-.96.96-.4.25-.87.45-1.41.59-.54.14-1.13.21-1.76.21h-1.61c-.08.06-.17.15-.26.28-.1.13-.14.25-.14.37,0,.29.12.49.35.6.23.11.65.17,1.26.19.6.01,1.21.04,1.82.07.61.04,1.05.06,1.32.06.38.02.76.1,1.14.23.38.13.7.31.98.52.3.23.55.52.75.87.2.35.3.76.3,1.22,0,.49-.12.96-.36,1.39-.24.43-.61.81-1.1,1.13-.52.33-1.15.59-1.87.77s-1.63.27-2.7.27c-1.73,0-3.05-.21-3.95-.62-.9-.42-1.36-1.04-1.36-1.87,0-.51.24-.93.73-1.26.49-.33,1.25-.51,2.27-.54v-.12c-.61-.2-1.08-.47-1.42-.8-.34-.33-.51-.72-.51-1.17,0-.27.07-.5.2-.69.13-.19.31-.35.52-.5.18-.12.41-.23.67-.32.26-.09.48-.16.66-.21v-.11c-.89-.32-1.54-.72-1.96-1.19-.42-.47-.63-1.04-.63-1.71,0-.95.45-1.72,1.34-2.29.89-.57,2.03-.86,3.4-.86.45,0,.88.04,1.3.11.42.07.74.14.95.2h3.84v1.06ZM103.43,51.76h-6.25v-.71c.17-.01.34-.03.5-.05.16-.02.31-.05.42-.1.21-.08.36-.19.45-.33.08-.15.13-.34.13-.58v-5.66c0-.23-.05-.43-.16-.6s-.24-.31-.4-.41c-.12-.08-.3-.15-.54-.22-.24-.07-.46-.12-.66-.14v-.71l4.84-.25.15.15v7.72c0,.23.05.42.15.58.1.16.24.28.42.36.13.06.28.11.44.16.16.05.32.08.49.1v.71ZM111.7,51.31c-.42.18-.87.34-1.35.49-.48.15-1.07.22-1.76.22-1.03,0-1.79-.25-2.29-.74-.5-.49-.75-1.2-.75-2.11v-5.97h-1.78v-1.06h1.82v-2.95h3.2v2.95h2.78v1.06h-2.76v5.32c0,.76.11,1.29.32,1.61.21.32.6.48,1.16.48.18,0,.43-.01.74-.04.32-.03.54-.06.67-.09v.82ZM123.69,51.55c-.29.12-.63.24-1.03.34-.4.1-.81.16-1.25.16-.81,0-1.4-.12-1.79-.36-.38-.24-.64-.58-.78-1.02h-.06c-.22.22-.44.41-.65.56-.21.16-.43.29-.67.4-.31.14-.61.25-.9.32s-.69.11-1.2.11c-.77,0-1.42-.22-1.96-.67-.54-.44-.81-1.03-.81-1.77,0-.42.06-.78.18-1.08.12-.29.29-.56.51-.78.2-.21.43-.38.69-.52.26-.14.55-.26.86-.38.59-.21,1.31-.44,2.14-.67s1.44-.44,1.82-.62v-.93c0-.16-.01-.38-.04-.64-.03-.27-.08-.49-.17-.67-.09-.21-.24-.38-.44-.53-.2-.14-.46-.21-.78-.21-.29,0-.53.04-.73.12s-.35.16-.47.25c.02.13.08.33.17.59.09.27.14.52.14.77,0,.11-.03.25-.09.41-.06.17-.15.3-.26.39-.15.13-.32.23-.51.3s-.48.11-.87.11c-.56,0-.98-.13-1.26-.39s-.43-.6-.43-1.03c0-.36.15-.69.44-.98.29-.29.65-.53,1.07-.71.42-.19.89-.35,1.43-.45.54-.11,1.04-.16,1.5-.16.64,0,1.23.04,1.76.11s1.01.23,1.44.46c.41.23.73.56.97.99.24.43.36.99.36,1.69,0,.73-.01,1.6-.04,2.61-.03,1.01-.04,1.67-.04,1.98,0,.29.04.52.13.69.09.17.23.29.41.38.11.05.29.08.53.09.24,0,.46.01.66.01v.71ZM130.49,51.76h-6.23v-.71c.17-.01.34-.03.5-.05.16-.02.31-.05.43-.1.21-.08.36-.19.43-.33.08-.15.12-.34.12-.58v-10.78c0-.25-.05-.48-.15-.69-.1-.21-.24-.37-.41-.48-.13-.08-.33-.17-.6-.24-.27-.08-.5-.12-.71-.14v-.71l4.98-.25.15.16v13.01c0,.24.04.43.13.58.09.15.23.27.42.35.13.06.27.11.42.16.15.05.32.08.52.1v.71Z"/>
      <path d="M116.79,47.41c-.24.18-.44.41-.58.7-.14.28-.21.62-.21,1,0,.51.12.87.35,1.1.24.23.52.34.87.34.36,0,.66-.07.9-.22.24-.15.44-.33.62-.54l.04-3.31c-.37.12-.74.26-1.1.42-.36.16-.66.33-.89.5Z"/>
    </g>
  </g>
</svg>