<?xml version="1.0" encoding="UTF-8"?>
<svg id="Capa_2" data-name="Capa 2" xmlns="http://www.w3.org/2000/svg" viewBox="0 0 124.88 76.33">
  <g id="Capa_6" data-name="Capa 6">
    <g>
      <path d="M76.08,57.42c-.19,0-.36.05-.5.14-.14.09-.26.22-.35.4-.08.17-.14.36-.17.59-.03.22-.04.46-.04.69,0,.54.09.98.28,1.32.19.34.45.52.8.52s.63-.15.82-.46.29-.75.29-1.32-.09-1.03-.27-1.37c-.18-.33-.47-.5-.85-.5Z"/>
      <path d="M74.52,65.79c0,.12.03.26.1.41.07.15.18.29.32.41.17.14.36.25.58.34.21.08.53.12.96.12.63,0,1.12-.12,1.45-.37.33-.25.5-.64.5-1.19,0-.17-.05-.33-.14-.5s-.3-.3-.63-.4c-.18-.03-.47-.05-.87-.06-.41,0-.96-.01-1.67-.01-.17.15-.32.32-.43.52-.12.2-.17.45-.17.73Z"/>
      <path d="M62.25,55.85c-.29-.4-.64-.72-1.07-.94-.43-.22-.91-.33-1.45-.33-.17,0-.37,0-.59.01-.22,0-.38.01-.49.02v7.96c0,.18.02.33.07.47.05.14.13.25.24.36.11.1.25.18.42.24s.38.08.65.08c.56,0,1.03-.1,1.43-.31s.72-.51.97-.91c.24-.39.42-.86.53-1.41.11-.54.17-1.17.17-1.88s-.07-1.33-.22-1.9c-.15-.57-.37-1.06-.65-1.46Z"/>
      <path d="M36.54,58.91c-.03-.31-.08-.56-.16-.76-.08-.23-.2-.41-.34-.52s-.33-.18-.55-.18c-.38,0-.68.19-.91.58-.23.38-.35.99-.37,1.83l2.37-.03c0-.3-.01-.6-.04-.91Z"/>
      <path d="M95.78,61.09c-.18.14-.33.32-.43.53-.1.21-.16.47-.16.76,0,.39.09.67.26.84s.39.26.65.26c.27,0,.5-.05.67-.17s.33-.25.46-.41l.03-2.51c-.28.09-.55.2-.82.32s-.49.25-.67.38Z"/>
      <path d="M0,0v76.33h124.88V0H0ZM84.71,54.31c0,.37-.14.69-.43.96s-.63.4-1.02.4-.74-.13-1.03-.4c-.29-.26-.43-.58-.43-.96s.14-.7.43-.96c.29-.27.63-.4,1.03-.4s.74.13,1.03.4c.29.27.43.59.43.96ZM64.61,24.37l3.95-6.52,15.07-4.93-13.42,15.61-.14-.05,1.9-2.74,2.28-3.78-4.5,6.46-5.25-3.68.11-.37ZM41.5,8.65l16.81,6.01,8.92,15.76-.04.42c-1.03,1.71-2.15,3.38-3.1,5.15-.11.2-.73,1.33-.63,1.47l5.02-3.71,14.02,17.07-14.54-4.87c-2.95-5.16-6.04-10.17-9.07-15.24l2.72-4.94-4.5,1.76-12.55-17.2c-.17.13.03.29.1.39,2.44,3.64,4.97,7.2,7.42,10.84l-.15.06-10.49-12.72.05-.25ZM70.63,54.31c0,.37-.14.69-.43.96s-.63.4-1.02.4-.74-.13-1.03-.4c-.29-.26-.43-.58-.43-.96s.14-.7.43-.96c.29-.27.63-.4,1.03-.4s.74.13,1.03.4c.29.27.43.59.43.96ZM61.98,39.6l-4.01,6.41-14.61,4.34,13.36-14.64,5.26,3.88ZM31.06,64.39h-6.39v-.58c.61-.04,1.01-.09,1.18-.16.18-.07.27-.17.27-.29,0-.06-.03-.17-.1-.31-.06-.14-.15-.3-.27-.48-.17-.29-.4-.65-.69-1.09-.29-.44-.59-.88-.9-1.35-1.03,1.2-1.69,1.99-1.97,2.39-.28.39-.42.66-.42.78,0,.07.01.13.03.17.02.05.08.09.17.14.07.04.19.08.35.11.17.04.37.06.6.08v.58h-4.07v-.58c.21-.02.38-.04.51-.07.13-.03.25-.07.37-.12.29-.13.54-.3.76-.51.22-.2.45-.44.69-.71.34-.39.73-.83,1.17-1.32.43-.49.89-1.02,1.37-1.58-.45-.68-.91-1.35-1.36-2-.45-.65-.84-1.2-1.15-1.65-.16-.23-.35-.45-.59-.68s-.48-.39-.74-.49c-.13-.05-.27-.1-.43-.14-.16-.04-.35-.06-.57-.08v-.58h6.41v.58c-.5.02-.87.06-1.11.13s-.36.17-.36.31c0,.07.02.16.07.26.05.11.14.27.28.5.12.2.3.49.55.86s.53.81.85,1.29c.93-1.11,1.51-1.83,1.75-2.17.24-.34.36-.57.36-.69,0-.14-.07-.25-.21-.32s-.46-.13-.97-.18v-.58h4.09v.58c-.19,0-.34.02-.46.05-.12.03-.26.08-.42.14-.31.14-.56.31-.77.51s-.43.44-.68.71c-.36.41-.71.8-1.05,1.18-.33.38-.74.85-1.22,1.4.6.9,1.11,1.65,1.53,2.25.42.61.83,1.17,1.21,1.71.15.23.34.45.57.68.23.23.48.39.73.49.12.04.25.09.41.12.15.04.35.07.61.08v.58ZM38.79,63.42c-.24.25-.52.46-.83.64-.33.19-.66.33-1,.43-.34.1-.73.14-1.16.14-.73,0-1.36-.1-1.89-.31s-.97-.49-1.31-.83-.6-.76-.77-1.24-.25-.99-.25-1.55c0-.5.09-.98.28-1.44.18-.46.45-.87.79-1.23.33-.35.76-.63,1.27-.85.51-.22,1.08-.33,1.71-.33.69,0,1.26.08,1.7.25.44.17.81.4,1.1.7.28.28.49.61.61.99.13.38.19.78.19,1.2v.48h-5c0,1.01.19,1.78.58,2.31.39.53,1.01.79,1.86.79.46,0,.88-.13,1.25-.38.37-.25.68-.58.95-.96l.56.41c-.17.28-.38.55-.62.79ZM49.88,64.39h-4.44v-.54c.09,0,.21-.02.34-.04.13-.02.23-.04.3-.07.1-.05.18-.13.22-.24.04-.1.07-.26.07-.46v-3.46c0-.5-.09-.88-.28-1.13-.18-.25-.46-.38-.82-.38-.2,0-.38.03-.55.09-.17.06-.34.15-.5.26-.14.1-.26.2-.34.3-.09.1-.16.2-.22.27v3.97c0,.17.02.32.07.43.05.12.13.2.24.26.08.04.18.08.29.12s.23.06.35.07v.54h-4.49v-.54c.12,0,.25-.02.37-.04.13-.02.23-.04.32-.07.16-.05.27-.14.33-.25.06-.11.09-.26.09-.44v-4.3c0-.15-.04-.3-.12-.45-.08-.15-.18-.27-.31-.36-.09-.06-.2-.11-.34-.15-.14-.04-.28-.07-.45-.08v-.54l3.53-.19.11.11v1.07h.03c.14-.12.31-.27.5-.44.2-.17.38-.31.55-.42.18-.12.42-.22.72-.3.3-.08.61-.13.95-.13.8,0,1.41.23,1.81.68.4.46.6,1.06.6,1.81v3.62c0,.18.03.33.08.44.05.11.16.19.3.26.08.03.18.07.29.1.12.03.25.06.4.07v.54ZM65.55,61.54c-.35.66-.82,1.2-1.4,1.61-.59.42-1.26.73-2.01.94-.75.2-1.54.31-2.36.31h-5.29v-.58c.16,0,.36-.02.59-.04.24-.02.39-.05.47-.09.18-.07.3-.17.37-.3.07-.13.1-.28.1-.46v-7.44c0-.17-.03-.32-.1-.46-.06-.13-.19-.25-.38-.33-.19-.08-.39-.14-.59-.17-.21-.03-.37-.05-.48-.06v-.58h5.58c.6,0,1.23.08,1.91.23.68.15,1.34.44,1.97.85.64.42,1.16.98,1.55,1.67s.59,1.55.59,2.56c0,.89-.18,1.66-.53,2.32ZM71.71,64.39h-4.67v-.54c.13,0,.25-.02.38-.04.12-.02.23-.04.32-.07.16-.06.27-.14.33-.25.06-.11.1-.26.1-.44v-4.3c0-.17-.04-.32-.12-.45-.08-.13-.18-.24-.29-.31-.09-.06-.22-.12-.4-.17-.18-.05-.34-.09-.49-.1v-.54l3.62-.19.11.11v5.87c0,.17.04.32.11.44.07.12.18.21.32.27.1.04.21.08.33.12s.24.06.37.07v.54ZM80.66,57.89h-1.63c.19.22.34.44.43.68s.14.49.14.75c0,.34-.09.66-.27.96-.18.3-.42.54-.72.73-.3.19-.65.34-1.06.45s-.84.16-1.32.16h-1.21c-.06.04-.12.12-.2.21s-.11.19-.11.28c0,.22.09.37.26.45.17.08.49.13.94.14.45,0,.9.03,1.36.06.46.03.79.04.98.05.29.01.57.07.85.17.28.1.52.23.73.4.23.17.41.39.56.66.15.27.22.58.22.93,0,.38-.09.73-.27,1.06s-.45.62-.82.86c-.39.25-.86.45-1.4.58-.54.14-1.22.21-2.02.21-1.3,0-2.28-.16-2.96-.47s-1.01-.79-1.01-1.42c0-.39.18-.71.55-.96.36-.25.93-.39,1.7-.41v-.09c-.45-.15-.81-.36-1.06-.61-.25-.25-.38-.55-.38-.89,0-.21.05-.38.15-.53.1-.14.23-.27.39-.38.14-.09.3-.17.5-.24s.36-.12.5-.16v-.08c-.67-.25-1.15-.55-1.47-.9-.31-.35-.47-.79-.47-1.3,0-.72.33-1.3,1-1.74s1.51-.65,2.54-.65c.33,0,.66.03.97.08.31.06.55.11.71.15h2.87v.81ZM85.79,64.39h-4.67v-.54c.13,0,.25-.02.38-.04.12-.02.23-.04.32-.07.16-.06.27-.14.33-.25.06-.11.1-.26.1-.44v-4.3c0-.17-.04-.32-.12-.45-.08-.13-.18-.24-.29-.31-.09-.06-.22-.12-.4-.17-.18-.05-.34-.09-.49-.1v-.54l3.62-.19.11.11v5.87c0,.17.04.32.11.44.07.12.18.21.32.27.1.04.21.08.33.12s.24.06.37.07v.54ZM91.97,64.05c-.32.14-.65.26-1.01.37-.36.11-.8.17-1.32.17-.77,0-1.34-.19-1.71-.56s-.56-.91-.56-1.6v-4.53h-1.33v-.81h1.36v-2.24h2.39v2.24h2.08v.81h-2.06v4.04c0,.58.08.98.24,1.23s.45.36.86.36c.13,0,.32,0,.56-.03s.4-.04.5-.07v.62ZM100.93,64.24c-.22.09-.47.18-.77.26s-.61.12-.94.12c-.61,0-1.05-.09-1.34-.27s-.48-.44-.58-.77h-.04c-.17.17-.33.31-.48.43-.16.12-.32.22-.5.3-.23.11-.46.19-.67.24-.21.05-.51.08-.9.08-.57,0-1.06-.17-1.47-.51-.41-.34-.61-.79-.61-1.34,0-.32.04-.59.13-.82.09-.22.21-.42.38-.6.15-.16.32-.29.51-.39.2-.1.41-.2.64-.29.44-.16.98-.33,1.6-.51.62-.18,1.08-.33,1.36-.47v-.71c0-.12,0-.29-.03-.49s-.06-.37-.13-.51c-.07-.16-.18-.29-.33-.4s-.34-.16-.58-.16c-.22,0-.4.03-.54.09s-.26.12-.35.19c.01.1.06.25.13.45s.1.4.1.58c0,.08-.02.19-.07.31-.04.13-.11.23-.19.3-.11.1-.24.17-.38.23-.14.05-.36.08-.65.08-.42,0-.73-.1-.94-.3-.21-.2-.32-.46-.32-.78,0-.28.11-.52.33-.74s.49-.4.8-.54c.31-.15.67-.26,1.07-.34s.78-.12,1.12-.12c.48,0,.92.03,1.32.08s.76.17,1.08.35c.31.17.55.42.73.75.18.33.27.75.27,1.28,0,.56-.01,1.22-.03,1.98-.02.76-.03,1.27-.03,1.51,0,.22.03.4.1.52s.17.22.31.29c.08.04.22.06.4.07.18,0,.34.01.49.01v.54ZM106.02,64.39h-4.66v-.54c.13,0,.25-.02.38-.04.12-.02.23-.04.32-.07.16-.06.27-.14.32-.25.06-.11.09-.26.09-.44v-8.19c0-.19-.04-.36-.12-.52s-.18-.28-.31-.37c-.1-.06-.25-.13-.45-.19-.2-.06-.38-.09-.53-.1v-.54l3.73-.19.11.12v9.88c0,.18.03.33.1.44s.17.2.31.27c.1.04.2.08.31.12.11.03.24.06.39.07v.54Z"/>
    </g>
  </g>
</svg>