<?xml version="1.0" encoding="UTF-8"?>
<svg id="Capa_2" data-name="Capa 2" xmlns="http://www.w3.org/2000/svg" viewBox="0 0 56.26 56.26">
  <defs>
    <style>
      .cls-1 {
        fill: #fff;
      }
    </style>
  </defs>
  <g id="Capa_1-2" data-name="Capa 1">
    <g>
      <path class="cls-1" d="M22.49,8.02l11.9,21.02-.05.56c-1.38,2.28-2.86,4.5-4.14,6.87-.14.26-.98,1.78-.84,1.96l6.69-4.94,18.71,22.77-19.39-6.49c-3.93-6.89-8.05-13.56-12.1-20.33l3.63-6.59-6,2.34L4.16,2.25c-.22.17.04.38.14.52,3.25,4.86,6.63,9.61,9.9,14.45l-.2.08L0,.34l.06-.34,22.42,8.02Z"/>
      <polygon class="cls-1" points="56.26 5.7 38.36 26.52 38.17 26.44 40.7 22.79 43.75 17.74 37.74 26.36 30.74 21.46 30.89 20.96 36.15 12.27 56.26 5.7"/>
      <polygon class="cls-1" points="22.03 49.83 2.54 55.62 20.36 36.09 27.38 41.27 22.03 49.83"/>
    </g>
  </g>
</svg>